<?xml version="1.0" encoding="UTF-8"?>
<svg xmlns="http://www.w3.org/2000/svg" version="1.1" width="300" height="300" viewBox="0 0 300 300"><rect x="0" y="0" width="300" height="300" fill="#ffffff"/><g transform="scale(10.345)"><g transform="translate(0,0)"><path fill-rule="evenodd" d="M8 0L8 3L10 3L10 7L9 7L9 5L8 5L8 9L9 9L9 10L11 10L11 14L12 14L12 15L11 15L11 16L10 16L10 15L9 15L9 16L8 16L8 17L9 17L9 18L10 18L10 19L9 19L9 20L8 20L8 18L5 18L5 16L4 16L4 18L3 18L3 16L2 16L2 15L5 15L5 14L4 14L4 13L7 13L7 14L6 14L6 15L8 15L8 14L9 14L9 13L7 13L7 12L9 12L9 11L7 11L7 10L6 10L6 11L7 11L7 12L5 12L5 11L3 11L3 10L4 10L4 9L5 9L5 8L2 8L2 9L3 9L3 10L2 10L2 11L1 11L1 12L2 12L2 13L3 13L3 14L1 14L1 13L0 13L0 16L1 16L1 17L0 17L0 21L1 21L1 17L2 17L2 20L3 20L3 21L7 21L7 20L8 20L8 22L9 22L9 21L10 21L10 23L9 23L9 24L8 24L8 27L9 27L9 26L10 26L10 27L11 27L11 28L10 28L10 29L13 29L13 27L14 27L14 28L19 28L19 29L20 29L20 28L19 28L19 27L20 27L20 26L21 26L21 25L22 25L22 27L24 27L24 26L26 26L26 27L25 27L25 28L22 28L22 29L27 29L27 27L28 27L28 28L29 28L29 27L28 27L28 26L26 26L26 23L27 23L27 22L26 22L26 21L29 21L29 19L27 19L27 18L28 18L28 17L27 17L27 18L26 18L26 15L24 15L24 17L23 17L23 18L24 18L24 17L25 17L25 19L21 19L21 20L20 20L20 21L18 21L18 22L17 22L17 24L16 24L16 23L15 23L15 22L16 22L16 21L17 21L17 19L18 19L18 20L19 20L19 17L18 17L18 15L19 15L19 16L21 16L21 18L22 18L22 16L23 16L23 15L22 15L22 16L21 16L21 14L22 14L22 12L24 12L24 14L26 14L26 13L25 13L25 11L24 11L24 10L25 10L25 9L24 9L24 8L21 8L21 6L20 6L20 5L19 5L19 6L18 6L18 4L16 4L16 3L15 3L15 2L14 2L14 1L16 1L16 2L17 2L17 3L19 3L19 2L18 2L18 1L17 1L17 0L14 0L14 1L13 1L13 0L10 0L10 1L9 1L9 0ZM20 1L20 2L21 2L21 1ZM11 2L11 3L12 3L12 5L11 5L11 7L12 7L12 9L11 9L11 10L12 10L12 12L14 12L14 10L15 10L15 13L16 13L16 14L17 14L17 13L18 13L18 14L19 14L19 15L20 15L20 14L21 14L21 13L20 13L20 14L19 14L19 10L20 10L20 11L21 11L21 12L22 12L22 11L23 11L23 9L21 9L21 8L16 8L16 6L17 6L17 7L18 7L18 6L17 6L17 5L15 5L15 4L14 4L14 3L12 3L12 2ZM20 3L20 4L21 4L21 3ZM13 4L13 5L12 5L12 7L13 7L13 5L14 5L14 4ZM14 6L14 8L13 8L13 9L12 9L12 10L14 10L14 9L15 9L15 10L17 10L17 12L18 12L18 10L19 10L19 9L18 9L18 10L17 10L17 9L16 9L16 8L15 8L15 6ZM19 6L19 7L20 7L20 6ZM6 8L6 9L7 9L7 8ZM9 8L9 9L10 9L10 8ZM26 8L26 9L28 9L28 10L26 10L26 11L28 11L28 10L29 10L29 8ZM20 9L20 10L21 10L21 9ZM2 11L2 12L3 12L3 13L4 13L4 12L3 12L3 11ZM27 12L27 13L28 13L28 14L27 14L27 15L28 15L28 16L29 16L29 15L28 15L28 14L29 14L29 13L28 13L28 12ZM13 13L13 14L14 14L14 13ZM13 15L13 16L11 16L11 17L10 17L10 16L9 16L9 17L10 17L10 18L11 18L11 17L14 17L14 15ZM15 15L15 19L13 19L13 18L12 18L12 19L10 19L10 20L12 20L12 21L13 21L13 22L14 22L14 21L13 21L13 20L15 20L15 19L16 19L16 16L17 16L17 15ZM6 16L6 17L7 17L7 16ZM17 17L17 18L18 18L18 17ZM4 18L4 19L3 19L3 20L5 20L5 18ZM6 19L6 20L7 20L7 19ZM26 19L26 20L25 20L25 21L26 21L26 20L27 20L27 19ZM21 21L21 24L24 24L24 21ZM18 22L18 23L19 23L19 25L20 25L20 23L19 23L19 22ZM22 22L22 23L23 23L23 22ZM10 23L10 24L9 24L9 25L10 25L10 26L11 26L11 25L12 25L12 24L13 24L13 25L14 25L14 24L13 24L13 23ZM28 23L28 24L29 24L29 23ZM15 24L15 25L16 25L16 24ZM12 26L12 27L13 27L13 26ZM15 26L15 27L16 27L16 26ZM17 26L17 27L18 27L18 26ZM0 0L0 7L7 7L7 0ZM1 1L1 6L6 6L6 1ZM2 2L2 5L5 5L5 2ZM22 0L22 7L29 7L29 0ZM23 1L23 6L28 6L28 1ZM24 2L24 5L27 5L27 2ZM0 22L0 29L7 29L7 22ZM1 23L1 28L6 28L6 23ZM2 24L2 27L5 27L5 24Z" fill="#000000"/></g></g></svg>
