<?xml version="1.0" encoding="UTF-8"?>
<svg xmlns="http://www.w3.org/2000/svg" version="1.1" width="900" height="900" viewBox="0 0 900 900"><rect x="0" y="0" width="900" height="900" fill="#ffffff"/><g transform="scale(36)"><g transform="translate(0,0)"><path fill-rule="evenodd" d="M10 0L10 2L11 2L11 0ZM12 0L12 1L13 1L13 2L12 2L12 4L14 4L14 5L11 5L11 6L10 6L10 4L11 4L11 3L8 3L8 4L9 4L9 5L8 5L8 7L9 7L9 8L6 8L6 9L8 9L8 10L6 10L6 11L4 11L4 12L3 12L3 10L5 10L5 8L0 8L0 11L1 11L1 12L0 12L0 17L1 17L1 13L3 13L3 15L2 15L2 16L3 16L3 17L5 17L5 16L6 16L6 17L8 17L8 19L10 19L10 21L9 21L9 20L8 20L8 25L12 25L12 23L13 23L13 22L10 22L10 21L11 21L11 18L10 18L10 17L9 17L9 16L11 16L11 17L12 17L12 18L13 18L13 19L12 19L12 21L13 21L13 20L14 20L14 21L16 21L16 22L17 22L17 24L16 24L16 25L17 25L17 24L19 24L19 22L17 22L17 21L21 21L21 19L25 19L25 14L24 14L24 13L25 13L25 9L24 9L24 8L23 8L23 10L22 10L22 11L23 11L23 10L24 10L24 12L23 12L23 14L22 14L22 15L23 15L23 16L24 16L24 18L21 18L21 17L22 17L22 16L20 16L20 15L21 15L21 14L20 14L20 13L19 13L19 12L20 12L20 11L21 11L21 10L20 10L20 8L19 8L19 9L18 9L18 8L17 8L17 6L16 6L16 8L15 8L15 9L14 9L14 10L13 10L13 9L12 9L12 7L13 7L13 6L14 6L14 7L15 7L15 5L16 5L16 4L17 4L17 1L16 1L16 0L15 0L15 1L13 1L13 0ZM8 1L8 2L9 2L9 1ZM13 2L13 3L14 3L14 4L15 4L15 3L16 3L16 2L15 2L15 3L14 3L14 2ZM9 6L9 7L10 7L10 6ZM11 6L11 7L12 7L12 6ZM10 8L10 9L9 9L9 12L7 12L7 11L6 11L6 12L7 12L7 13L5 13L5 12L4 12L4 13L5 13L5 15L4 15L4 16L5 16L5 15L6 15L6 16L9 16L9 15L8 15L8 14L7 14L7 13L9 13L9 14L10 14L10 15L11 15L11 14L13 14L13 15L12 15L12 17L14 17L14 18L16 18L16 17L15 17L15 16L16 16L16 15L15 15L15 14L17 14L17 13L18 13L18 14L19 14L19 15L17 15L17 16L19 16L19 15L20 15L20 14L19 14L19 13L18 13L18 12L19 12L19 11L17 11L17 8L16 8L16 11L14 11L14 12L13 12L13 13L12 13L12 11L13 11L13 10L12 10L12 9L11 9L11 8ZM21 8L21 9L22 9L22 8ZM1 9L1 11L2 11L2 10L3 10L3 9ZM10 9L10 11L11 11L11 9ZM9 12L9 13L11 13L11 12ZM14 12L14 14L15 14L15 13L17 13L17 12ZM6 14L6 15L7 15L7 14ZM23 14L23 15L24 15L24 14ZM17 17L17 20L20 20L20 17ZM18 18L18 19L19 19L19 18ZM14 19L14 20L16 20L16 19ZM23 21L23 22L21 22L21 23L20 23L20 24L21 24L21 23L22 23L22 24L23 24L23 25L25 25L25 24L24 24L24 23L25 23L25 21ZM23 22L23 23L24 23L24 22ZM10 23L10 24L11 24L11 23ZM14 23L14 24L15 24L15 23ZM0 0L0 7L7 7L7 0ZM1 1L1 6L6 6L6 1ZM2 2L2 5L5 5L5 2ZM18 0L18 7L25 7L25 0ZM19 1L19 6L24 6L24 1ZM20 2L20 5L23 5L23 2ZM0 18L0 25L7 25L7 18ZM1 19L1 24L6 24L6 19ZM2 20L2 23L5 23L5 20Z" fill="#000000"/></g></g></svg>
