<?xml version="1.0" encoding="UTF-8"?>
<svg xmlns="http://www.w3.org/2000/svg" version="1.1" width="900" height="900" viewBox="0 0 900 900"><rect x="0" y="0" width="900" height="900" fill="#e771bc" fill-opacity="0.36"/><g transform="scale(31.034)"><g transform="translate(2,2)"><g><g transform="translate(3.5,3.5)"><path fill-rule="evenodd" d="M-3.5 -3.5L3.5 -3.5L3.5 3.5L-3.5 3.5ZM-2.5 -2.5L-2.5 2.5L2.5 2.5L2.5 -2.5Z" fill="#951853"/><path fill-rule="evenodd" d="M-1.5 -1.5L1.5 -1.5L1.5 1.5L-1.5 1.5Z" fill="#50bf8a"/></g></g><g><g transform="translate(21.5,3.5)"><g transform="rotate(90)"><path fill-rule="evenodd" d="M-3.5 -3.5L3.5 -3.5L3.5 3.5L-3.5 3.5ZM-2.5 -2.5L-2.5 2.5L2.5 2.5L2.5 -2.5Z" fill="#cc2327"/><path fill-rule="evenodd" d="M-1.5 -1.5L1.5 -1.5L1.5 1.5L-1.5 1.5Z" fill="#be3781"/></g></g></g><g><g transform="translate(3.5,21.5)"><g transform="rotate(-90)"><path fill-rule="evenodd" d="M-3.5 -3.5L3.5 -3.5L3.5 3.5L-3.5 3.5ZM-2.5 -2.5L-2.5 2.5L2.5 2.5L2.5 -2.5Z" fill="#cce544"/><path fill-rule="evenodd" d="M-1.5 -1.5L1.5 -1.5L1.5 1.5L-1.5 1.5Z" fill="#c085f6"/></g></g></g><path fill-rule="evenodd" d="M8 0.25L8 1.75A0.25 0.25 0 0 0 8.25 2L9.75 2A0.25 0.25 0 0 1 10 2.25L10 2.75A0.25 0.25 0 0 0 10.25 3L12.75 3A0.25 0.25 0 0 0 13 2.75L13 2.25A0.25 0.25 0 0 1 13.25 2L13.75 2A0.25 0.25 0 0 0 14 1.75L14 1.25A0.25 0.25 0 0 1 14.25 1L14.75 1A0.25 0.25 0 0 1 15 1.25L15 2.75A0.25 0.25 0 0 1 14.75 3L14.25 3A0.25 0.25 0 0 0 14 3.25L14 6.75A0.25 0.25 0 0 1 13.75 7L13.25 7A0.25 0.25 0 0 1 13 6.75L13 5.25A0.25 0.25 0 0 0 12.75 5L12.25 5A0.25 0.25 0 0 0 12 5.25L12 6.75A0.25 0.25 0 0 1 11.75 7L11.25 7A0.25 0.25 0 0 1 11 6.75L11 4.25A0.25 0.25 0 0 0 10.75 4L9.25 4A0.25 0.25 0 0 1 9 3.75L9 3.25A0.25 0.25 0 0 0 8.75 3L8.25 3A0.25 0.25 0 0 0 8 3.25L8 3.75A0.25 0.25 0 0 0 8.25 4L8.75 4A0.25 0.25 0 0 1 9 4.25L9 5.75A0.25 0.25 0 0 1 8.75 6L8.25 6A0.25 0.25 0 0 0 8 6.25L8 7.75A0.25 0.25 0 0 1 7.75 8L5.25 8A0.25 0.25 0 0 0 5 8.25L5 8.75A0.25 0.25 0 0 1 4.75 9L4.25 9A0.25 0.25 0 0 1 4 8.75L4 8.25A0.25 0.25 0 0 0 3.75 8L2.25 8A0.25 0.25 0 0 0 2 8.25L2 8.75A0.25 0.25 0 0 1 1.75 9L1.25 9A0.25 0.25 0 0 1 1 8.75L1 8.25A0.25 0.25 0 0 0 0.75 8L0.25 8A0.25 0.25 0 0 0 0 8.25L0 8.75A0.25 0.25 0 0 0 0.25 9L0.75 9A0.25 0.25 0 0 1 1 9.25L1 9.75A0.25 0.25 0 0 1 0.75 10L0.25 10A0.25 0.25 0 0 0 0 10.25L0 10.75A0.25 0.25 0 0 0 0.25 11L0.75 11A0.25 0.25 0 0 1 1 11.25L1 14.75A0.25 0.25 0 0 1 0.75 15L0.25 15A0.25 0.25 0 0 0 0 15.25L0 15.75A0.25 0.25 0 0 0 0.25 16L0.75 16A0.25 0.25 0 0 0 1 15.75L1 15.25A0.25 0.25 0 0 1 1.25 15L1.75 15A0.25 0.25 0 0 1 2 15.25L2 15.75A0.25 0.25 0 0 0 2.25 16L3.75 16A0.25 0.25 0 0 0 4 15.75L4 15.25A0.25 0.25 0 0 1 4.25 15L4.75 15A0.25 0.25 0 0 0 5 14.75L5 14.25A0.25 0.25 0 0 1 5.25 14L5.75 14A0.25 0.25 0 0 1 6 14.25L6 14.75A0.25 0.25 0 0 0 6.25 15L6.75 15A0.25 0.25 0 0 0 7 14.75L7 14.25A0.25 0.25 0 0 0 6.75 14L6.25 14A0.25 0.25 0 0 1 6 13.75L6 13.25A0.25 0.25 0 0 1 6.25 13L6.75 13A0.25 0.25 0 0 0 7 12.75L7 12.25A0.25 0.25 0 0 0 6.75 12L6.25 12A0.25 0.25 0 0 1 6 11.75L6 11.25A0.25 0.25 0 0 1 6.25 11L7.75 11A0.25 0.25 0 0 1 8 11.25L8 19.75A0.25 0.25 0 0 0 8.25 20L8.75 20A0.25 0.25 0 0 1 9 20.25L9 20.75A0.25 0.25 0 0 1 8.75 21L8.25 21A0.25 0.25 0 0 0 8 21.25L8 22.75A0.25 0.25 0 0 0 8.25 23L9.75 23A0.25 0.25 0 0 1 10 23.25L10 24.75A0.25 0.25 0 0 0 10.25 25L11.75 25A0.25 0.25 0 0 0 12 24.75L12 24.25A0.25 0.25 0 0 1 12.25 24L14.75 24A0.25 0.25 0 0 1 15 24.25L15 24.75A0.25 0.25 0 0 0 15.25 25L15.75 25A0.25 0.25 0 0 0 16 24.75L16 24.25A0.25 0.25 0 0 0 15.75 24L15.25 24A0.25 0.25 0 0 1 15 23.75L15 23.25A0.25 0.25 0 0 1 15.25 23L15.75 23A0.25 0.25 0 0 0 16 22.75L16 22.25A0.25 0.25 0 0 1 16.25 22L18.75 22A0.25 0.25 0 0 0 19 21.75L19 21.25A0.25 0.25 0 0 1 19.25 21L20.75 21A0.25 0.25 0 0 0 21 20.75L21 18.25A0.25 0.25 0 0 1 21.25 18L21.75 18A0.25 0.25 0 0 1 22 18.25L22 18.75A0.25 0.25 0 0 0 22.25 19L22.75 19A0.25 0.25 0 0 1 23 19.25L23 20.75A0.25 0.25 0 0 0 23.25 21L23.75 21A0.25 0.25 0 0 1 24 21.25L24 21.75A0.25 0.25 0 0 1 23.75 22L22.25 22A0.25 0.25 0 0 0 22 22.25L22 22.75A0.25 0.25 0 0 1 21.75 23L19.25 23A0.25 0.25 0 0 0 19 23.25L19 24.75A0.25 0.25 0 0 0 19.25 25L19.75 25A0.25 0.25 0 0 0 20 24.75L20 24.25A0.25 0.25 0 0 1 20.25 24L22.75 24A0.25 0.25 0 0 1 23 24.25L23 24.75A0.25 0.25 0 0 0 23.25 25L24.75 25A0.25 0.25 0 0 0 25 24.75L25 23.25A0.25 0.25 0 0 0 24.75 23L24.25 23A0.25 0.25 0 0 1 24 22.75L24 22.25A0.25 0.25 0 0 1 24.25 22L24.75 22A0.25 0.25 0 0 0 25 21.75L25 21.25A0.25 0.25 0 0 0 24.75 21L24.25 21A0.25 0.25 0 0 1 24 20.75L24 20.25A0.25 0.25 0 0 1 24.25 20L24.75 20A0.25 0.25 0 0 0 25 19.75L25 18.25A0.25 0.25 0 0 0 24.75 18L23.25 18A0.25 0.25 0 0 1 23 17.75L23 17.25A0.25 0.25 0 0 1 23.25 17L23.75 17A0.25 0.25 0 0 0 24 16.75L24 16.25A0.25 0.25 0 0 1 24.25 16L24.75 16A0.25 0.25 0 0 0 25 15.75L25 15.25A0.25 0.25 0 0 0 24.75 15L23.25 15A0.25 0.25 0 0 0 23 15.25L23 16.75A0.25 0.25 0 0 1 22.75 17L21.25 17A0.25 0.25 0 0 1 21 16.75L21 16.25A0.25 0.25 0 0 1 21.25 16L21.75 16A0.25 0.25 0 0 0 22 15.75L22 13.25A0.25 0.25 0 0 0 21.75 13L20.25 13A0.25 0.25 0 0 1 20 12.75L20 12.25A0.25 0.25 0 0 0 19.75 12L19.25 12A0.25 0.25 0 0 1 19 11.75L19 11.25A0.25 0.25 0 0 0 18.75 11L18.25 11A0.25 0.25 0 0 0 18 11.25L18 11.75A0.25 0.25 0 0 1 17.75 12L17.25 12A0.25 0.25 0 0 1 17 11.75L17 11.25A0.25 0.25 0 0 0 16.75 11L14.25 11A0.25 0.25 0 0 1 14 10.75L14 10.25A0.25 0.25 0 0 1 14.25 10L15.75 10A0.25 0.25 0 0 0 16 9.75L16 9.25A0.25 0.25 0 0 1 16.25 9L16.75 9A0.25 0.25 0 0 0 17 8.75L17 4.25A0.25 0.25 0 0 0 16.75 4L16.25 4A0.25 0.25 0 0 1 16 3.75L16 1.25A0.25 0.25 0 0 1 16.25 1L16.75 1A0.25 0.25 0 0 0 17 0.75L17 0.25A0.25 0.25 0 0 0 16.75 0L16.25 0A0.25 0.25 0 0 0 16 0.25L16 0.75A0.25 0.25 0 0 1 15.75 1L15.25 1A0.25 0.25 0 0 1 15 0.75L15 0.25A0.25 0.25 0 0 0 14.75 0L14.25 0A0.25 0.25 0 0 0 14 0.25L14 0.75A0.25 0.25 0 0 1 13.75 1L13.25 1A0.25 0.25 0 0 1 13 0.75L13 0.25A0.25 0.25 0 0 0 12.75 0L11.25 0A0.25 0.25 0 0 0 11 0.25L11 0.75A0.25 0.25 0 0 1 10.75 1L9.25 1A0.25 0.25 0 0 1 9 0.75L9 0.25A0.25 0.25 0 0 0 8.75 0L8.25 0A0.25 0.25 0 0 0 8 0.25ZM11 1.25L11 1.75A0.25 0.25 0 0 0 11.25 2L12.75 2A0.25 0.25 0 0 0 13 1.75L13 1.25A0.25 0.25 0 0 0 12.75 1L11.25 1A0.25 0.25 0 0 0 11 1.25ZM15 4.25L15 6.75A0.25 0.25 0 0 0 15.25 7L15.75 7A0.25 0.25 0 0 0 16 6.75L16 4.25A0.25 0.25 0 0 0 15.75 4L15.25 4A0.25 0.25 0 0 0 15 4.25ZM9 6.25L9 6.75A0.25 0.25 0 0 0 9.25 7L9.75 7A0.25 0.25 0 0 0 10 6.75L10 6.25A0.25 0.25 0 0 0 9.75 6L9.25 6A0.25 0.25 0 0 0 9 6.25ZM12 7.25L12 7.75A0.25 0.25 0 0 1 11.75 8L8.25 8A0.25 0.25 0 0 0 8 8.25L8 10.75A0.25 0.25 0 0 0 8.25 11L9.75 11A0.25 0.25 0 0 1 10 11.25L10 11.75A0.25 0.25 0 0 1 9.75 12L9.25 12A0.25 0.25 0 0 0 9 12.25L9 15.75A0.25 0.25 0 0 0 9.25 16L9.75 16A0.25 0.25 0 0 1 10 16.25L10 16.75A0.25 0.25 0 0 1 9.75 17L9.25 17A0.25 0.25 0 0 0 9 17.25L9 18.75A0.25 0.25 0 0 0 9.25 19L9.75 19A0.25 0.25 0 0 1 10 19.25L10 22.75A0.25 0.25 0 0 0 10.25 23L13.75 23A0.25 0.25 0 0 0 14 22.75L14 22.25A0.25 0.25 0 0 1 14.25 22L14.75 22A0.25 0.25 0 0 0 15 21.75L15 21.25A0.25 0.25 0 0 0 14.75 21L13.25 21A0.25 0.25 0 0 1 13 20.75L13 18.25A0.25 0.25 0 0 1 13.25 18L14.75 18A0.25 0.25 0 0 0 15 17.75L15 17.25A0.25 0.25 0 0 1 15.25 17L15.75 17A0.25 0.25 0 0 0 16 16.75L16 15.25A0.25 0.25 0 0 1 16.25 15L16.75 15A0.25 0.25 0 0 1 17 15.25L17 15.75A0.25 0.25 0 0 0 17.25 16L18.75 16A0.25 0.25 0 0 0 19 15.75L19 13.25A0.25 0.25 0 0 0 18.75 13L18.25 13A0.25 0.25 0 0 0 18 13.25L18 14.75A0.25 0.25 0 0 1 17.75 15L17.25 15A0.25 0.25 0 0 1 17 14.75L17 14.25A0.25 0.25 0 0 0 16.75 14L16.25 14A0.25 0.25 0 0 1 16 13.75L16 13.25A0.25 0.25 0 0 1 16.25 13L16.75 13A0.25 0.25 0 0 0 17 12.75L17 12.25A0.25 0.25 0 0 0 16.75 12L16.25 12A0.25 0.25 0 0 0 16 12.25L16 12.75A0.25 0.25 0 0 1 15.75 13L15.25 13A0.25 0.25 0 0 1 15 12.75L15 12.25A0.25 0.25 0 0 0 14.75 12L14.25 12A0.25 0.25 0 0 0 14 12.25L14 12.75A0.25 0.25 0 0 1 13.75 13L13.25 13A0.25 0.25 0 0 0 13 13.25L13 13.75A0.25 0.25 0 0 1 12.75 14L12.25 14A0.25 0.25 0 0 0 12 14.25L12 15.75A0.25 0.25 0 0 1 11.75 16L11.25 16A0.25 0.25 0 0 1 11 15.75L11 13.25A0.25 0.25 0 0 1 11.25 13L11.75 13A0.25 0.25 0 0 0 12 12.75L12 12.25A0.25 0.25 0 0 1 12.25 12L12.75 12A0.25 0.25 0 0 0 13 11.75L13 10.25A0.25 0.25 0 0 1 13.25 10L13.75 10A0.25 0.25 0 0 0 14 9.75L14 8.25A0.25 0.25 0 0 0 13.75 8L13.25 8A0.25 0.25 0 0 1 13 7.75L13 7.25A0.25 0.25 0 0 0 12.75 7L12.25 7A0.25 0.25 0 0 0 12 7.25ZM15 8.25L15 8.75A0.25 0.25 0 0 0 15.25 9L15.75 9A0.25 0.25 0 0 0 16 8.75L16 8.25A0.25 0.25 0 0 0 15.75 8L15.25 8A0.25 0.25 0 0 0 15 8.25ZM18 8.25L18 8.75A0.25 0.25 0 0 0 18.25 9L18.75 9A0.25 0.25 0 0 1 19 9.25L19 9.75A0.25 0.25 0 0 0 19.25 10L20.75 10A0.25 0.25 0 0 0 21 9.75L21 9.25A0.25 0.25 0 0 1 21.25 9L21.75 9A0.25 0.25 0 0 0 22 8.75L22 8.25A0.25 0.25 0 0 0 21.75 8L21.25 8A0.25 0.25 0 0 0 21 8.25L21 8.75A0.25 0.25 0 0 1 20.75 9L19.25 9A0.25 0.25 0 0 1 19 8.75L19 8.25A0.25 0.25 0 0 0 18.75 8L18.25 8A0.25 0.25 0 0 0 18 8.25ZM23 8.25L23 8.75A0.25 0.25 0 0 0 23.25 9L24.75 9A0.25 0.25 0 0 0 25 8.75L25 8.25A0.25 0.25 0 0 0 24.75 8L23.25 8A0.25 0.25 0 0 0 23 8.25ZM2 9.25L2 9.75A0.25 0.25 0 0 0 2.25 10L2.75 10A0.25 0.25 0 0 1 3 10.25L3 10.75A0.25 0.25 0 0 1 2.75 11L2.25 11A0.25 0.25 0 0 0 2 11.25L2 12.75A0.25 0.25 0 0 0 2.25 13L3.75 13A0.25 0.25 0 0 1 4 13.25L4 13.75A0.25 0.25 0 0 1 3.75 14L2.25 14A0.25 0.25 0 0 0 2 14.25L2 14.75A0.25 0.25 0 0 0 2.25 15L3.75 15A0.25 0.25 0 0 0 4 14.75L4 14.25A0.25 0.25 0 0 1 4.25 14L4.75 14A0.25 0.25 0 0 0 5 13.75L5 13.25A0.25 0.25 0 0 1 5.25 13L5.75 13A0.25 0.25 0 0 0 6 12.75L6 12.25A0.25 0.25 0 0 0 5.75 12L5.25 12A0.25 0.25 0 0 0 5 12.25L5 12.75A0.25 0.25 0 0 1 4.75 13L4.25 13A0.25 0.25 0 0 1 4 12.75L4 12.25A0.25 0.25 0 0 0 3.75 12L3.25 12A0.25 0.25 0 0 1 3 11.75L3 11.25A0.25 0.25 0 0 1 3.25 11L5.75 11A0.25 0.25 0 0 0 6 10.75L6 10.25A0.25 0.25 0 0 1 6.25 10L6.75 10A0.25 0.25 0 0 0 7 9.75L7 9.25A0.25 0.25 0 0 0 6.75 9L5.25 9A0.25 0.25 0 0 0 5 9.25L5 9.75A0.25 0.25 0 0 1 4.75 10L3.25 10A0.25 0.25 0 0 1 3 9.75L3 9.25A0.25 0.25 0 0 0 2.75 9L2.25 9A0.25 0.25 0 0 0 2 9.25ZM9 9.25L9 9.75A0.25 0.25 0 0 0 9.25 10L9.75 10A0.25 0.25 0 0 1 10 10.25L10 10.75A0.25 0.25 0 0 0 10.25 11L10.75 11A0.25 0.25 0 0 1 11 11.25L11 11.75A0.25 0.25 0 0 1 10.75 12L10.25 12A0.25 0.25 0 0 0 10 12.25L10 12.75A0.25 0.25 0 0 0 10.25 13L10.75 13A0.25 0.25 0 0 0 11 12.75L11 12.25A0.25 0.25 0 0 1 11.25 12L11.75 12A0.25 0.25 0 0 0 12 11.75L12 10.25A0.25 0.25 0 0 1 12.25 10L12.75 10A0.25 0.25 0 0 0 13 9.75L13 9.25A0.25 0.25 0 0 0 12.75 9L12.25 9A0.25 0.25 0 0 0 12 9.25L12 9.75A0.25 0.25 0 0 1 11.75 10L10.25 10A0.25 0.25 0 0 1 10 9.75L10 9.25A0.25 0.25 0 0 0 9.75 9L9.25 9A0.25 0.25 0 0 0 9 9.25ZM22 10.25L22 10.75A0.25 0.25 0 0 1 21.75 11L21.25 11A0.25 0.25 0 0 0 21 11.25L21 11.75A0.25 0.25 0 0 0 21.25 12L22.75 12A0.25 0.25 0 0 1 23 12.25L23 12.75A0.25 0.25 0 0 0 23.25 13L23.75 13A0.25 0.25 0 0 1 24 13.25L24 13.75A0.25 0.25 0 0 0 24.25 14L24.75 14A0.25 0.25 0 0 0 25 13.75L25 12.25A0.25 0.25 0 0 0 24.75 12L24.25 12A0.25 0.25 0 0 1 24 11.75L24 10.25A0.25 0.25 0 0 0 23.75 10L22.25 10A0.25 0.25 0 0 0 22 10.25ZM14 13.25L14 13.75A0.25 0.25 0 0 1 13.75 14L13.25 14A0.25 0.25 0 0 0 13 14.25L13 14.75A0.25 0.25 0 0 0 13.25 15L13.75 15A0.25 0.25 0 0 0 14 14.75L14 14.25A0.25 0.25 0 0 1 14.25 14L14.75 14A0.25 0.25 0 0 0 15 13.75L15 13.25A0.25 0.25 0 0 0 14.75 13L14.25 13A0.25 0.25 0 0 0 14 13.25ZM20 15.25L20 15.75A0.25 0.25 0 0 0 20.25 16L20.75 16A0.25 0.25 0 0 0 21 15.75L21 15.25A0.25 0.25 0 0 0 20.75 15L20.25 15A0.25 0.25 0 0 0 20 15.25ZM6 16.25L6 16.75A0.25 0.25 0 0 0 6.25 17L6.75 17A0.25 0.25 0 0 0 7 16.75L7 16.25A0.25 0.25 0 0 0 6.75 16L6.25 16A0.25 0.25 0 0 0 6 16.25ZM12 16.25L12 16.75A0.25 0.25 0 0 0 12.25 17L12.75 17A0.25 0.25 0 0 0 13 16.75L13 16.25A0.25 0.25 0 0 0 12.75 16L12.25 16A0.25 0.25 0 0 0 12 16.25ZM14 16.25L14 16.75A0.25 0.25 0 0 0 14.25 17L14.75 17A0.25 0.25 0 0 0 15 16.75L15 16.25A0.25 0.25 0 0 0 14.75 16L14.25 16A0.25 0.25 0 0 0 14 16.25ZM10 17.25L10 17.75A0.25 0.25 0 0 0 10.25 18L10.75 18A0.25 0.25 0 0 0 11 17.75L11 17.25A0.25 0.25 0 0 0 10.75 17L10.25 17A0.25 0.25 0 0 0 10 17.25ZM17 17.25L17 19.75A0.25 0.25 0 0 0 17.25 20L19.75 20A0.25 0.25 0 0 0 20 19.75L20 17.25A0.25 0.25 0 0 0 19.75 17L17.25 17A0.25 0.25 0 0 0 17 17.25ZM18 18.25L18 18.75A0.25 0.25 0 0 0 18.25 19L18.75 19A0.25 0.25 0 0 0 19 18.75L19 18.25A0.25 0.25 0 0 0 18.75 18L18.25 18A0.25 0.25 0 0 0 18 18.25ZM11 19.25L11 19.75A0.25 0.25 0 0 0 11.25 20L11.75 20A0.25 0.25 0 0 0 12 19.75L12 19.25A0.25 0.25 0 0 0 11.75 19L11.25 19A0.25 0.25 0 0 0 11 19.25ZM15 19.25L15 19.75A0.25 0.25 0 0 0 15.25 20L15.75 20A0.25 0.25 0 0 0 16 19.75L16 19.25A0.25 0.25 0 0 0 15.75 19L15.25 19A0.25 0.25 0 0 0 15 19.25ZM17 23.25L17 24.75A0.25 0.25 0 0 0 17.25 25L17.75 25A0.25 0.25 0 0 0 18 24.75L18 23.25A0.25 0.25 0 0 0 17.75 23L17.25 23A0.25 0.25 0 0 0 17 23.25ZM8 24.25L8 24.75A0.25 0.25 0 0 0 8.25 25L8.75 25A0.25 0.25 0 0 0 9 24.75L9 24.25A0.25 0.25 0 0 0 8.75 24L8.25 24A0.25 0.25 0 0 0 8 24.25Z" fill="#2fa22b"/></g></g></svg>
